<svg xmlns="http://www.w3.org/2000/svg" width="1024" height="1024" viewBox="0 0 1024 1024">
  <defs>
    <linearGradient id="sky" x1="0" x2="0" y1="0" y2="1">
      <stop offset="0%" stop-color="#f7f1e6"/>
      <stop offset="100%" stop-color="#eadfcd"/>
    </linearGradient>
    <linearGradient id="hill1" x1="0" x2="0" y1="0" y2="1">
      <stop offset="0%" stop-color="#c8d3c2"/>
      <stop offset="100%" stop-color="#a1b09a"/>
    </linearGradient>
    <linearGradient id="hill2" x1="0" x2="0" y1="0" y2="1">
      <stop offset="0%" stop-color="#b7c4b0"/>
      <stop offset="100%" stop-color="#8ea087"/>
    </linearGradient>
    <pattern id="grain" width="6" height="6" patternUnits="userSpaceOnUse">
      <circle cx="1" cy="1" r="0.6" fill="#000" opacity="0.06"/>
      <circle cx="4" cy="2" r="0.6" fill="#000" opacity="0.04"/>
      <circle cx="2" cy="5" r="0.6" fill="#000" opacity="0.05"/>
    </pattern>
  </defs>

  <rect width="1024" height="1024" fill="url(#sky)"/>
  <circle cx="780" cy="220" r="75" fill="#e9b56a" opacity="0.85"/>

  <path d="M0,780 C140,640 280,610 430,670 C540,715 640,760 770,760 C890,760 980,720 1024,700 L1024,1024 L0,1024 Z" fill="url(#hill1)"/>
  <path d="M0,860 C180,740 340,720 540,785 C690,830 840,870 1024,845 L1024,1024 L0,1024 Z" fill="url(#hill2)"/>

  <g transform="translate(330 470)">
    <rect x="40" y="170" width="270" height="150" fill="#c69057" stroke="#6c4a2b" stroke-width="8"/>
    <rect x="150" y="220" width="60" height="100" fill="#6c4a2b"/>
    <rect x="0" y="140" width="350" height="40" fill="#8a5630"/>
    <rect x="20" y="90" width="310" height="55" fill="#a36238"/>
    <path d="M-10,90 L175,10 L360,90 Z" fill="#6f3f1f"/>
    <path d="M20,140 L175,60 L330,140 Z" fill="#7b4524"/>
    <rect x="80" y="250" width="40" height="40" fill="#f0e4d2"/>
    <rect x="240" y="250" width="40" height="40" fill="#f0e4d2"/>
  </g>

  <rect width="1024" height="1024" fill="url(#grain)" opacity="0.6"/>
</svg>
